<svg xmlns="http://www.w3.org/2000/svg" xmlns:xlink="http://www.w3.org/1999/xlink" width="500" zoomAndPan="magnify" viewBox="0 0 375 374.999991" height="500" preserveAspectRatio="xMidYMid meet" version="1.0"><defs><g/><clipPath id="eebdad3ab1"><path d="M 153 93 L 213 93 L 213 157 L 153 157 Z M 153 93 " clip-rule="nonzero"/></clipPath><clipPath id="95662e8f55"><path d="M 153.789062 143.832031 L 197.519531 93.523438 L 212.308594 106.378906 L 168.578125 156.683594 Z M 153.789062 143.832031 " clip-rule="nonzero"/></clipPath><clipPath id="976f49ef73"><path d="M 153.789062 143.832031 L 197.507812 93.542969 L 212.292969 106.394531 L 168.578125 156.683594 Z M 153.789062 143.832031 " clip-rule="nonzero"/></clipPath><clipPath id="ac1b86ee43"><path d="M 153 213 L 211 213 L 211 277 L 153 277 Z M 153 213 " clip-rule="nonzero"/></clipPath><clipPath id="60d01ee417"><path d="M 195.347656 276.332031 L 153.734375 226.039062 L 168.988281 213.417969 L 210.601562 263.707031 Z M 195.347656 276.332031 " clip-rule="nonzero"/></clipPath><clipPath id="c5956a4a96"><path d="M 195.347656 276.332031 L 153.785156 226.097656 L 169.039062 213.476562 L 210.601562 263.707031 Z M 195.347656 276.332031 " clip-rule="nonzero"/></clipPath></defs><g fill="#000000" fill-opacity="1"><g transform="translate(46.639849, 265.474152)"><g><path d="M 22.59375 0 L 22.59375 -178.203125 L 61 -178.203125 C 128.9375 -178.203125 162.90625 -148.753906 162.90625 -89.859375 C 162.90625 -61.078125 154.660156 -38.90625 138.171875 -23.34375 C 121.691406 -7.78125 97.554688 0 65.765625 0 Z M 30.375 -6.78125 L 65.015625 -6.78125 C 124.910156 -6.78125 154.859375 -34.472656 154.859375 -89.859375 C 154.859375 -117.296875 147.285156 -137.75 132.140625 -151.21875 C 117.003906 -164.695312 93.707031 -171.4375 62.25 -171.4375 L 30.375 -171.4375 Z M 30.375 -6.78125 "/></g></g></g><g clip-path="url(#eebdad3ab1)"><g clip-path="url(#95662e8f55)"><g clip-path="url(#976f49ef73)"><path fill="#f8f8f8" d="M 153.789062 143.832031 L 197.519531 93.523438 L 212.308594 106.378906 L 168.578125 156.683594 Z M 153.789062 143.832031 " fill-opacity="1" fill-rule="nonzero"/></g></g></g><g clip-path="url(#ac1b86ee43)"><g clip-path="url(#60d01ee417)"><g clip-path="url(#c5956a4a96)"><path fill="#f8f8f8" d="M 195.347656 276.332031 L 153.785156 226.097656 L 169.039062 213.476562 L 210.601562 263.707031 Z M 195.347656 276.332031 " fill-opacity="1" fill-rule="nonzero"/></g></g></g><g fill="#000000" fill-opacity="1"><g transform="translate(143.462601, 270.24693)"><g><path d="M 103.46875 -79.890625 L 157.296875 -79.890625 L 157.296875 0 L 151.84375 0 L 150.109375 -29.53125 C 144.648438 -19.101562 137.285156 -11.285156 128.015625 -6.078125 C 118.753906 -0.867188 107.179688 1.734375 93.296875 1.734375 C 77.742188 1.734375 64.300781 -1.695312 52.96875 -8.5625 C 41.632812 -15.425781 32.90625 -25.304688 26.78125 -38.203125 C 20.664062 -51.109375 17.609375 -66.738281 17.609375 -85.09375 C 17.609375 -103.625 20.957031 -119.875 27.65625 -133.84375 C 34.363281 -147.820312 43.796875 -158.78125 55.953125 -166.71875 C 68.109375 -174.664062 82.289062 -178.640625 98.5 -178.640625 C 111.238281 -178.640625 122.566406 -175.910156 132.484375 -170.453125 C 142.410156 -164.992188 150.101562 -156.972656 155.5625 -146.390625 L 149.609375 -141.421875 C 144.316406 -151.179688 137.492188 -158.539062 129.140625 -163.5 C 120.785156 -168.46875 110.078125 -170.953125 97.015625 -170.953125 C 82.953125 -170.953125 70.546875 -167.3125 59.796875 -160.03125 C 49.046875 -152.75 40.648438 -142.613281 34.609375 -129.625 C 28.578125 -116.644531 25.5625 -101.640625 25.5625 -84.609375 C 25.5625 -59.128906 31.429688 -39.648438 43.171875 -26.171875 C 54.910156 -12.691406 71.78125 -5.953125 93.78125 -5.953125 C 112.632812 -5.953125 126.734375 -10.875 136.078125 -20.71875 C 145.429688 -30.5625 150.109375 -43.753906 150.109375 -60.296875 L 150.109375 -73.1875 L 103.46875 -73.1875 Z M 103.46875 -79.890625 "/></g></g></g></svg>